<?xml version="1.0" encoding="UTF-8" standalone="no"?>
<!-- Created with Inkscape (http://www.inkscape.org/) -->

<svg
   xmlns:dc="http://purl.org/dc/elements/1.1/"
   xmlns:cc="http://creativecommons.org/ns#"
   xmlns:rdf="http://www.w3.org/1999/02/22-rdf-syntax-ns#"
   xmlns:svg="http://www.w3.org/2000/svg"
   xmlns="http://www.w3.org/2000/svg"
   xmlns:sodipodi="http://sodipodi.sourceforge.net/DTD/sodipodi-0.dtd"
   xmlns:inkscape="http://www.inkscape.org/namespaces/inkscape"
   width="493.82721"
   height="481.6322"
   id="svg3345"
   version="1.1"
   inkscape:version="0.48.4 r9939"
   sodipodi:docname="Nouveau document 2">
  <defs
     id="defs3347" />
  <sodipodi:namedview
     id="base"
     pagecolor="#ffffff"
     bordercolor="#666666"
     borderopacity="1.0"
     inkscape:pageopacity="0.0"
     inkscape:pageshadow="2"
     inkscape:zoom="0.35"
     inkscape:cx="373.34215"
     inkscape:cy="-34.950499"
     inkscape:document-units="px"
     inkscape:current-layer="layer1"
     showgrid="false"
     fit-margin-top="0"
     fit-margin-left="0"
     fit-margin-right="0"
     fit-margin-bottom="0"
     inkscape:window-width="1600"
     inkscape:window-height="852"
     inkscape:window-x="0"
     inkscape:window-y="0"
     inkscape:window-maximized="1" />
  <metadata
     id="metadata3350">
    <rdf:RDF>
      <cc:Work
         rdf:about="">
        <dc:format>image/svg+xml</dc:format>
        <dc:type
           rdf:resource="http://purl.org/dc/dcmitype/StillImage" />
        <dc:title></dc:title>
      </cc:Work>
    </rdf:RDF>
  </metadata>
  <g
     inkscape:label="Calque 1"
     inkscape:groupmode="layer"
     id="layer1"
     transform="translate(-1.6578527,-15.779481)">
    <path
       inkscape:connector-curvature="0"
       d="M 248.57137,15.779481 C 112.22268,15.779481 1.6578527,126.31977 1.6578527,262.693 c 0,109.08877 70.7482333,201.64249 168.8545373,234.29143 12.33995,2.28564 16.87032,-5.3563 16.87032,-11.87791 0,-5.88376 -0.22897,-25.3382 -0.33528,-45.97021 -68.69158,14.93633 -83.18632,-29.13259 -83.18632,-29.13259 -11.231894,-28.53562 -27.415304,-36.1285 -27.415304,-36.1285 -22.40245,-15.32476 1.68867,-15.00992 1.68867,-15.00992 24.794394,1.74182 37.849884,25.44859 37.849884,25.44859 22.02219,37.74357 57.76226,26.8306 71.85221,20.52161 2.22021,-15.95444 8.61507,-26.85105 15.6764,-33.01693 -54.84287,-6.23949 -112.494734,-27.4153 -112.494734,-122.02569 0,-26.95326 9.645444,-48.98363 25.440424,-66.2751 -2.56367,-6.21905 -11.01519,-31.33236 2.39603,-65.34287 0,0 20.73422,-6.63201 67.91471,25.31367 19.69567,-5.4708 40.81833,-8.21437 61.80197,-8.3125 20.98364,0.0981 42.12266,2.8417 61.85513,8.3125 47.12733,-31.94568 67.83294,-25.31367 67.83294,-25.31367 13.43983,34.01051 4.98831,59.12382 2.42465,65.34287 15.83177,17.29147 25.4077,39.32184 25.4077,66.2751 0,94.83936 -57.76226,115.71669 -112.74414,121.82942 8.85631,7.66239 16.74766,22.68867 16.74766,45.72488 0,33.03738 -0.28196,59.62674 -0.28196,67.75934 0,6.57476 4.44042,14.26985 16.95619,11.84929 98.05723,-32.68574 168.71551,-125.20675 168.71551,-234.26281 0,-136.37323 -110.54846,-246.913519 -246.91351,-246.913519"
       style="fill:#1b1817;fill-opacity:1;fill-rule:evenodd;stroke:none"
       id="path28" />
  </g>
</svg>
